{"title":"Blade Trinity (2004) - Dublado 720p AVI","uid":10918272,"size":2093546153,"categoryP":"video","categoryS":"hd___movies","magnet":"?xt=urn:btih:5b6bc4e890d47853b1a1d3816b60a912d443c4fa&amp;dn=Blade+Trinity+%282004%29+-+Dublado+720p+AVI&amp;tr=udp%3A%2F%2Ftracker.openbittorrent.com%3A80&amp;tr=udp%3A%2F%2Fopen.demonii.com%3A1337&amp;tr=udp%3A%2F%2Ftracker.coppersurfer.tk%3A6969&amp;tr=udp%3A%2F%2Fexodus.desync.com%3A6969","seeders":1,"leechers":1,"uploader":"eletrom","files":-1,"time":1409318448,"description":"General\nComplete name                            : Blade Trinity (2004) - Dublado 720pBlade Trinity (2004) - Dublado 720p.avi\nFormat                                   : AVI\nFormat/Info                              : Audio Video Interleave\nFormat profile                           : OpenDML\nFile size                                : 1.95 GiB\nDuration                                 : 1h 52mn\nOverall bit rate                         : 2 472 Kbps\nWriting application                      : MEncoder SVN-r33883(20110719-gcc4.5.2)\nWriting library                          : MPlayer\n\nVideo\nID                                       : 0\nFormat                                   : MPEG-4 Visual\nFormat profile                           : Advanced Simple@L5\nFormat settings, BVOP                    : 2\nFormat settings, QPel                    : No\nFormat settings, GMC                     : No warppoints\nFormat settings, Matrix                  : Default (H.263)\nCodec ID                                 : XVID\nCodec ID/Hint                            : XviD\nDuration                                 : 1h 52mn\nBit rate                                 : 2 395 Kbps\nWidth                                    : 1 280 pixels\nHeight                                   : 544 pixels\nDisplay aspect ratio                     : 2.35:1\nFrame rate                               : 29.970 fps\nColor space                              : YUV\nChroma subsampling                       : 4:2:0\nBit depth                                : 8 bits\nScan type                                : Progressive\nCompression mode                         : Lossy\nBits/(Pixel*Frame)                       : 0.115\nStream size                              : 1.89 GiB (97%)\nWriting library                          : XviD 1.2.1 (UTC 2008-12-04)\n\nAudio\nID                                       : 1\nFormat                                   : MPEG Audio\nFormat version                           : Version 2\nFormat profile                           : Layer 3\nMode                                     : Joint stereo\nMode extension                           : MS Stereo\nCodec ID                                 : 55\nCodec ID/Hint                            : MP3\nDuration                                 : 1h 52mn\nBit rate mode                            : Constant\nBit rate                                 : 64.0 Kbps\nChannel count                            : 2 channels\nSampling rate                            : 22.05 KHz\nCompression mode                         : Lossy\nDelay relative to video                  : 33ms\nStream size                              : 51.7 MiB (3%)\nAlignment                                : Aligned on interleaves\nInterleave, duration                     : 26 ms (0.78 video frame)\nInterleave, preload duration             : 522 ms\nWriting library                          : LAME3.98.4\n\n","torrent":{"xt":"urn:btih:5b6bc4e890d47853b1a1d3816b60a912d443c4fa","amp;dn":"Blade+Trinity+%282004%29+-+Dublado+720p+AVI","amp;tr":["udp%3A%2F%2Ftracker.openbittorrent.com%3A80","udp%3A%2F%2Fopen.demonii.com%3A1337","udp%3A%2F%2Ftracker.coppersurfer.tk%3A6969","udp%3A%2F%2Fexodus.desync.com%3A6969"],"infoHash":"5b6bc4e890d47853b1a1d3816b60a912d443c4fa","infoHashBuffer":{"type":"Buffer","data":[91,107,196,232,144,212,120,83,177,161,211,129,107,96,169,18,212,67,196,250]},"announce":[],"urlList":[]}}